The Shild S05 DVDRip FOVThe.Shield.5x01.Extraction.avi
   General
      Complete name :...The Shild S05 DVDRip FOVThe.Shield.5x01.Extraction.avi
      Format : AVI
      Format/Info : Audio Video Interleave
      File size : 350 MiB
      Duration : 51mn 1s
      Overall bit rate : 960 Kbps
      Writing application : Nandub v1.0rc2
      Writing library : Nandub build 1853/release
   Video #0
      ID : 0
      Format : MPEG-4 Visual
      Format profile : Advanced Simple@L5
      Format settings, BVOP : 2
      Format settings, QPel : No
      Format settings, GMC : No warppoints
      Format settings, Matrix : Default (H.263)
      Muxing mode : Packed bitstream
      Codec ID : XVID
      Codec ID/Hint : XviD
      Duration : 51mn 1s
      Bit rate : 814 Kbps
      Width : 576 pixels
      Height : 432 pixels
      Display aspect ratio : 4:3
      Frame rate : 23.976 fps
      Color space : YUV
      Chroma subsampling : 4:2:0
      Bit depth : 8 bits
      Scan type : Progressive
      Compression mode : Lossy
      Bits/(Pixel*Frame) : 0.136
      Stream size : 297 MiB (85%)
      Writing library : XviD 1.1.0 (UTC 2005-11-22)
   Audio #1
      ID : 1
      Format : MPEG Audio
      Format version : Version 1
      Format profile : Layer 3
      Mode : Joint stereo
      Mode extension : MS Stereo
      Codec ID : 55
      Codec ID/Hint : MP3
      Duration : 51mn 1s
      Bit rate mode : Variable
      Bit rate : 134 Kbps
      Channel(s) : 2 channels
      Sampling rate : 48.0 KHz
      Compression mode : Lossy
      Delay relative to video : 8ms
      Stream size : 48.8 MiB (14%)
      Alignment : Aligned on interleaves
      Interleave, duration : 24 ms (0.58 video frame)
      Interleave, preload duration : 367 ms
      Writing library : LAME3.96.1